<svg xmlns="http://www.w3.org/2000/svg" viewBox="0 0 147 112" enable-background="new 0 0 147 112"><g fill="#12100b"><path d="m146.41 21.79h-1.643v4.154c0 .53.068.892.203 1.084.135.192.364.29.687.29.19 0 .351-.026.487-.079.135-.052.233-.1.297-.142l.172 1.017c-.052.041-.177.105-.375.194-.199.089-.465.133-.799.133-.646 0-1.132-.179-1.455-.539-.323-.36-.484-.956-.484-1.789v-4.323h-.908v-.844l.908-.188.14-2.092h1.128v2.092h1.798l-.156 1.032m-10.313 6.465v-4.826c0-.613-.087-1.056-.264-1.327-.179-.271-.465-.406-.862-.406-.209 0-.393.026-.556.076-.161.052-.303.118-.43.196-.124.079-.233.164-.327.257-.094.094-.172.177-.236.251v5.777h-1.268v-7.497h1.159v.844h.031c.052-.085.131-.185.236-.305.105-.12.233-.233.391-.343.157-.111.338-.201.548-.275.209-.072.443-.109.705-.109.855 0 1.46.334 1.815.999.072-.103.172-.216.297-.336.124-.118.271-.229.439-.327.166-.098.353-.179.563-.242.209-.061.439-.094.689-.094 1.523 0 2.284.886 2.284 2.655v5.03h-1.268v-4.826c0-.613-.109-1.056-.329-1.327-.218-.271-.541-.406-.971-.406-.353 0-.648.085-.884.257-.233.17-.419.336-.554.491.02.116.035.238.046.367.011.131.015.268.015.415v5.03h-1.269zm-7.776-4.482l-.844-2.952c-.116-.397-.214-.775-.299-1.132-.083-.36-.129-.659-.14-.899h-.031c-.011.24-.061.535-.151.884-.087.349-.19.72-.303 1.115l-.892 2.985h2.66m2.768 4.481h-1.501l-.971-3.452h-3.271l-.984 3.452h-1.379l3.521-10.776h1.065l3.52 10.776m-12.471-5.983c-.083-.092-.233-.22-.454-.382-.218-.161-.504-.242-.86-.242-.334 0-.589.079-.766.233-.179.157-.266.345-.266.563 0 .281.081.513.242.696.161.181.408.377.742.585l.471.281c.511.301.912.628 1.204.975.292.349.439.801.439 1.353 0 .593-.207 1.093-.62 1.499-.41.406-1 .609-1.776.609-.301 0-.567-.031-.796-.094-.231-.063-.432-.135-.602-.218-.172-.083-.316-.175-.432-.275-.113-.098-.207-.19-.281-.273l.611-.999c.063.063.137.135.227.218.089.083.196.164.321.242.124.079.266.144.423.196.155.052.338.079.548.079.375 0 .661-.085.86-.251.199-.166.297-.369.297-.609 0-.177-.022-.332-.07-.46-.046-.131-.118-.249-.212-.351-.094-.105-.207-.203-.345-.297-.135-.094-.29-.199-.469-.314l-.469-.297c-.469-.301-.838-.62-1.104-.951-.264-.334-.397-.761-.397-1.281 0-.281.055-.539.164-.775.109-.233.264-.436.46-.609.199-.17.432-.305.698-.406.266-.098.55-.148.851-.148.292 0 .543.028.753.087.207.057.388.129.539.218.153.087.277.177.375.264.1.089.181.166.242.227l-.548.907m-7.307-.67c-.447 0-.807.188-1.08.561-.271.375-.428.916-.469 1.625h2.738c.011-.052.02-.129.024-.227.004-.098.009-.205.009-.321 0-.519-.105-.923-.314-1.211-.21-.285-.511-.427-.908-.427m2.378 1.687c0 .323-.009.6-.031.836-.022.233-.041.439-.063.615h-3.833c.041.886.233 1.536.572 1.953.338.417.827.626 1.462.626.22 0 .419-.026.596-.079.177-.052.332-.116.463-.188.129-.074.24-.146.327-.218.089-.074.155-.131.196-.172l.469.89c-.052.052-.131.127-.236.227-.103.098-.244.196-.421.297-.179.098-.397.183-.657.257-.262.072-.569.109-.925.109-.469 0-.895-.079-1.274-.234-.382-.157-.705-.399-.971-.727-.266-.329-.471-.746-.617-1.25-.146-.504-.218-1.111-.218-1.82 0-.665.074-1.241.227-1.726.151-.484.356-.882.617-1.194.26-.314.563-.545.908-.696.345-.151.713-.227 1.111-.227.72 0 1.283.227 1.691.681.404.454.607 1.135.607 2.04m-7.979-.203c0-.541-.129-.927-.384-1.156-.255-.229-.556-.343-.899-.343-.367 0-.679.113-.94.343-.26.229-.391.615-.391 1.156 0 .541.131.925.391 1.154.262.229.563.345.908.345.367 0 .676-.116.932-.345.255-.229.383-.613.383-1.154m-1.675 4.935c-.218 0-.412-.017-.578-.048-.094.052-.185.116-.275.188-.087.072-.168.161-.242.266-.072.103-.133.227-.179.367-.048.14-.072.305-.072.491 0 .803.445 1.204 1.331 1.204.761 0 1.324-.148 1.691-.445.364-.297.548-.639.548-1.023 0-.364-.116-.622-.345-.775-.229-.151-.537-.225-.923-.225h-.956zm3.491-6.279h-.94c.24.395.36.844.36 1.344 0 .395-.065.751-.194 1.069-.131.319-.314.585-.548.805-.236.218-.513.384-.831.5-.316.113-.659.17-1.023.17h-.205c-.061 0-.129-.004-.203-.015-.124.052-.255.135-.391.251-.135.113-.203.266-.203.452 0 .157.059.284.179.384.12.098.316.148.587.148h.956c.353 0 .683.035.984.109.303.072.567.19.792.351.223.161.397.367.524.617.124.249.188.552.188.905 0 .406-.087.775-.257 1.108-.172.334-.417.62-.729.86-.312.24-.694.425-1.141.561-.449.135-.951.203-1.503.203-.803 0-1.414-.172-1.831-.521-.417-.349-.626-.851-.626-1.508 0-.281.05-.524.148-.727.1-.203.216-.38.353-.53.135-.151.273-.271.415-.36.14-.087.253-.159.336-.212v-.031c-.323-.24-.487-.587-.487-1.045 0-.199.039-.371.118-.517.079-.144.168-.264.266-.358.1-.094.199-.17.297-.227.1-.057.175-.096.227-.118v-.031c-.384-.177-.696-.456-.929-.836-.236-.38-.353-.866-.353-1.46 0-.417.068-.783.205-1.102.135-.319.316-.58.548-.788.229-.209.497-.364.805-.469.308-.105.639-.157.993-.157.356 0 .689.063 1 .188h2.284l-.172.987m-7.951-2.795c-.26 0-.469-.083-.626-.251-.155-.166-.233-.384-.233-.655 0-.262.079-.476.233-.641.157-.166.367-.249.626-.249.251 0 .454.083.611.249.157.166.236.38.236.641 0 .271-.079.489-.236.655-.157.168-.36.251-.611.251m.626 9.308h-1.268v-7.497h1.268v7.497zm-2.708-6.465h-1.643v4.154c0 .53.068.892.205 1.084.135.192.364.29.687.29.188 0 .349-.026.484-.079.137-.052.236-.1.299-.142l.172 1.017c-.052.041-.179.105-.377.194-.196.089-.463.133-.796.133-.648 0-1.132-.179-1.455-.539-.323-.36-.487-.956-.487-1.789v-4.323h-.908v-.844l.908-.188.142-2.092h1.126v2.092h1.8l-.157 1.032m-4.459.076c-.031-.02-.098-.046-.203-.076-.105-.033-.244-.048-.423-.048-.395 0-.705.107-.929.321-.225.214-.384.445-.478.694v5.498h-1.268v-7.497h1.159v1.015h.031c.052-.144.12-.288.203-.428.085-.142.188-.266.314-.375.124-.109.273-.196.445-.257.172-.063.38-.094.62-.094.177 0 .321.015.43.046.109.03.194.057.257.079l-.158 1.122m-5.601-3.264c0 .24-.074.432-.22.578-.146.146-.323.218-.53.218-.209 0-.386-.072-.532-.218-.146-.146-.22-.338-.22-.578 0-.238.074-.432.22-.578.146-.144.323-.218.532-.218.207 0 .384.074.53.218.146.146.22.341.22.578m-2.411 0c0 .24-.072.432-.218.578-.146.146-.323.218-.532.218-.209 0-.386-.072-.532-.218-.146-.146-.218-.338-.218-.578 0-.238.072-.432.218-.578.146-.144.323-.218.532-.218.209 0 .386.074.532.218.146.146.218.341.218.578m.299 8.763c.177 0 .334-.026.469-.079.135-.052.253-.113.351-.188.1-.072.183-.153.251-.242.068-.087.127-.164.179-.225v-1.656l-.406.015c-.604.022-1.065.124-1.377.312-.314.188-.469.489-.469.905 0 .386.087.674.266.868.177.194.422.29.736.29m-2.269-1.015c0-.439.083-.803.249-1.093.168-.292.393-.53.674-.711.281-.183.613-.312.993-.391.382-.079.785-.118 1.213-.118h.391v-.717c0-.635-.111-1.071-.336-1.311-.225-.24-.539-.36-.947-.36-.375 0-.687.081-.938.242-.251.161-.449.305-.596.43l-.53-.844c.083-.083.19-.177.321-.279.129-.105.288-.205.476-.297.188-.094.401-.172.641-.236.24-.061.513-.094.814-.094.772 0 1.357.214 1.754.641.395.425.593 1.113.593 2.062v3.419c0 .323.011.637.031.945.022.308.044.513.063.617h-1.204l-.048-.827h-.032c-.041.094-.105.199-.188.319-.083.12-.188.229-.312.329-.127.098-.277.183-.454.257-.179.072-.386.109-.626.109-.281 0-.545-.052-.79-.157-.247-.103-.46-.249-.641-.436-.183-.188-.325-.408-.423-.663-.1-.256-.148-.535-.148-.836m-.674-5.592l-2.284 7.497h-1.126l-.768-2.625c-.113-.373-.209-.722-.288-1.045-.079-.323-.129-.631-.148-.921h-.033c-.02.29-.079.602-.172.936-.094.334-.203.683-.327 1.047l-.862 2.607h-1.08l-2.363-7.497h1.361l1.128 4.248c.105.395.194.764.273 1.102s.124.659.133.96h.033c.031-.301.096-.618.194-.945.1-.327.212-.685.336-1.069l.814-2.452-.563-1.844h1.316l1.141 4.139c.116.428.22.827.314 1.202.094.375.146.698.155.969h.033c.02-.271.072-.596.155-.975.085-.382.183-.779.299-1.196l1.111-4.139h1.218zm-10.829 1.514c-.083-.092-.233-.22-.454-.382-.218-.161-.506-.242-.86-.242-.334 0-.589.079-.766.233-.179.157-.266.345-.266.563 0 .281.081.513.242.696.161.181.408.377.742.585l.471.281c.511.301.912.628 1.204.975.292.349.439.801.439 1.353 0 .593-.207 1.093-.62 1.499-.412.406-1 .609-1.776.609-.301 0-.567-.031-.796-.094-.231-.063-.432-.135-.604-.218-.17-.083-.314-.175-.43-.275-.113-.098-.207-.19-.281-.273l.611-.999c.061.063.137.135.227.218.087.083.194.164.321.242.124.079.266.144.421.196.157.052.34.079.548.079.377 0 .663-.085.862-.251.199-.166.297-.369.297-.609 0-.177-.024-.332-.07-.46-.048-.131-.118-.249-.212-.351-.094-.105-.209-.203-.345-.297-.135-.094-.292-.199-.469-.314l-.469-.297c-.469-.301-.838-.62-1.104-.951-.266-.334-.399-.761-.399-1.281 0-.281.057-.539.166-.775.109-.233.264-.436.46-.609.199-.17.432-.305.698-.406.264-.098.55-.148.851-.148.292 0 .543.028.753.087.207.057.388.129.539.218.151.087.277.177.375.264.1.089.181.166.242.227l-.548.907m-5.18 5.983h-1.156v-.845h-.033c-.031.063-.098.155-.203.275-.105.12-.238.233-.399.343-.161.109-.358.205-.587.29-.229.083-.484.124-.766.124-.334 0-.635-.05-.899-.148-.266-.098-.493-.257-.681-.476-.19-.22-.332-.504-.432-.853-.098-.347-.148-.777-.148-1.287v-4.92h1.268v4.826c0 .624.103 1.069.305 1.335.203.266.519.399.947.399.364 0 .672-.092.923-.275.251-.181.449-.362.596-.539v-5.747h1.265v7.498m-9.09-4.482l-.847-2.952c-.113-.397-.214-.775-.297-1.132-.083-.36-.131-.659-.142-.899h-.03c-.011.24-.059.535-.148.884-.089.349-.19.72-.305 1.115l-.892 2.985h2.661m2.769 4.481h-1.501l-.971-3.452h-3.271l-.986 3.452h-1.377l3.521-10.776h1.063l3.522 10.776"/><path d="m26.719 26.931c1.346 2.125 2.4 2.088 3.991 2.088-1.316-1.01-2.186-2.295-2.601-2.954l-2.461-3.927c-.238-1.213-.866-2.348-1.809-3.19.316-.12.58-.247.737-.367-1.606 0-3.196-.814-4.071-.814-.563 0-.925.336-.925.781.035.495.545.997 1.488.997.214 0 .487-.028.788-.079.511.711.921 1.353.921 2.269 0 1.719-2.06 3.059-4.137 3.059-.12 0-.231-.004-.349-.013-.188-.425-.814-1.141-.814-1.955 0-1.366.892-2.483.892-3.836 0-.84-.41-1.361-.567-1.58.255-.236.532-.526.6-.724-.151.063-.325.072-.583.072-.997 0-1.809-.26-2.601-.26-.452 0-.574.14-.574.273 0 .048.007.098.02.122-.168-.065-.325-.109-.513-.144-.236-.044-.487-.065-.755-.065-.962 0-1.305.402-1.305.748 0 .29.231.823.493 1.231.375-.19.825-.316 1.03-.316.513 0 .967.484 1.207 1.06-.343.041-.408.057-.757.057-.936 0-1.575-.336-1.706-.336-.011 0-.037.007-.037.028 0 .131.266.478.79.668.689.253 1.724.358 1.896.386 0 .03-.175.356-.371.419-.041.013-.074.013-.122.004-.72-.142-.921-.203-1.835-.55-.028-.011-.046.007-.046.035 0 .362.936 1.159 1.776 1.464-.7.892-1.575 1.807-1.988 3.199-.118.009-.231.013-.349.013-2.077 0-4.137-1.34-4.137-3.059 0-.916.41-1.558.921-2.269.301.05.572.079.788.079.943 0 1.453-.502 1.488-.997 0-.445-.36-.781-.925-.781-.875 0-2.465.814-4.073.814.159.12.423.247.737.367-.94.842-1.569 1.977-1.807 3.19l-2.459 3.927c-.414.659-1.289 1.949-2.605 2.954 1.591 0 2.647.037 3.993-2.088l1.261-2.01c.094.262.207.515.343.766l-2.507 4c-.417.663-1.283 1.942-2.603 2.954 1.591 0 2.644.037 3.991-2.086l2.158-3.45c.161.172.332.34.511.5l-3.047 4.868c-.417.665-1.276 1.942-2.601 2.952 1.591 0 2.644.039 3.991-2.086l2.969-4.746c.194.124.395.244.602.356l-3.624 5.791c-.419.665-1.279 1.937-2.603 2.952 1.591 0 2.647.037 3.993-2.086l3.731-5.963c.22.085.445.166.672.238l-4.217 6.735c-.41.657-1.292 1.953-2.601 2.954 1.591 0 2.647.037 3.991-2.086l4.495-7.18c.046.009.092.015.135.024.122.388.209.751.209 1.111 0 2.258-1.484 4.25-3.264 5.788.113.048.312.065.495.065.369 0 .604-.02.772-.048-.415.936-1.3 2.145-1.748 2.769-.583-.105-1.429-.185-1.985-.185-.58 0-.646.338-.646.641 0 .526.247.945.532 1.178.109-.268.325-.628 1.399-.628.022 0 .059.002.109.007-.314.347-1.296 1.141-1.296 1.778 0 .423.465 1.056 1.076 1.056-.035-.135-.033-.26-.033-.356 0-.517.46-1.121.849-1.545-.013.127-.007.113-.007.26 0 1.222.111 1.785.888 1.785.382 0 .644-.209.735-.273-.506-.463-.532-.827-.532-1.512.002-.179.004-.353.007-.593 0-.157-.002-.364-.026-.515.277-.037.391-.037.604-.037 0 0 1.104-.089 1.37.484.299-.273.735-.661.735-1.087 0-.284-.135-.602-.705-.602-.214 0-.892.131-1.46.131.153-.336.831-1.327 1.418-2.044.089.279.227.578.535.825.044-.46.314-1.922 1.039-2.775.085.576.196 1.169.196 2.417 0 3.035-.731 5.278-2.284 5.708.203.349.631.665 1.073.665.569 0 .877-.641 1.193-1.246.164.445.617 1.54 1.073 1.54.454 0 .91-1.095 1.073-1.54.314.604.624 1.246 1.193 1.246.443 0 .871-.316 1.073-.665-1.553-.43-2.287-2.673-2.287-5.708 0-1.248.113-1.841.196-2.417.727.853.997 2.315 1.039 2.775.31-.247.447-.545.537-.825.587.718 1.265 1.708 1.418 2.044-.567 0-1.246-.131-1.46-.131-.569 0-.703.319-.703.602 0 .425.434.814.735 1.087.264-.574 1.37-.484 1.37-.484.212 0 .325 0 .604.037-.026.151-.028.358-.026.515.002.24.002.415.004.593 0 .685-.026 1.05-.532 1.512.092.063.353.273.735.273.777 0 .888-.563.888-1.785 0-.146.004-.133-.007-.26.388.423.849 1.028.849 1.545 0 .096.004.22-.035.356.613 0 1.08-.633 1.08-1.056 0-.637-.984-1.431-1.298-1.778.05-.004.087-.007.107-.007 1.076 0 1.292.36 1.401.628.286-.233.532-.652.532-1.178 0-.303-.065-.641-.646-.641-.556 0-1.403.081-1.985.185-.449-.624-1.333-1.833-1.748-2.769.168.028.406.048.772.048.183 0 .382-.017.495-.065-1.78-1.538-3.264-3.53-3.264-5.788 0-.36.087-.722.209-1.111.044-.009.089-.015.135-.024l4.495 7.18c1.344 2.123 2.4 2.086 3.991 2.086-1.309-1-2.191-2.297-2.601-2.954l-4.22-6.735c.229-.072.454-.153.674-.238l3.731 5.963c1.346 2.123 2.402 2.086 3.993 2.086-1.324-1.015-2.184-2.287-2.603-2.952l-3.618-5.79c.205-.111.408-.231.602-.356l2.969 4.746c1.346 2.125 2.4 2.086 3.991 2.086-1.324-1.01-2.182-2.287-2.601-2.952l-3.046-4.868c.179-.159.349-.327.508-.5l2.16 3.45c1.346 2.123 2.4 2.086 3.991 2.086-1.322-1.012-2.184-2.291-2.603-2.954l-2.507-4c.135-.251.249-.504.345-.766l1.26 2.01m-20.13-4.61c0-1.497 1.091-2.679 1.475-3.01.092.022.183.044.277.063-.408.497-1.128 1.329-1.128 2.433 0 2.188 2.341 4.089 4.996 4.089-.017.188-.026.384-.026.587 0 .323.017.624.05.908-3-.018-5.644-2.449-5.644-5.067m4.067 17.946l-.017.05h.052c.842 0 1.252-.061 1.525-.1.142-.017.244-.033.353-.033.218 0 .384.02.384.288 0 .179-.209.463-.412.628-.312-.29-.742-.349-1.372-.349-.297 0-.683.052-.888.083l-.035.002-.035.007.011.098c.024.175.055.391.055.683l-.002.266-.004.329c0 .713.098 1.119.349 1.429-.065.024-.17.044-.238.044-.445 0-.574-.194-.574-1.473 0-.257-.013-.497-.022-.657l-.013-.238-.055.045c-.661.502-1.342 1.401-1.383 2.071-.199-.127-.415-.415-.415-.635 0-.367.552-.916 1.191-1.553l.369-.367.046-.048-.12-.028c-.137-.037-.393-.1-.611-.1-.716 0-1.163.135-1.44.436-.1-.145-.183-.479-.183-.675 0-.127.024-.216.076-.268.061-.059.159-.059.244-.059h.017c.79 0 1.735.142 2.101.201l.024.004.014-.018c.063-.087 1.569-2.088 1.959-3.148.089-.033.168-.059.325-.059.297 0 .38.199.465.506-.942 1.139-1.527 2.027-1.741 2.638m8.119-3.144c.157 0 .233.026.325.059.391 1.06 1.896 3.061 1.959 3.148l.013.017.024-.004c.369-.059 1.311-.201 2.101-.201h.017c.085 0 .183 0 .244.059.052.052.076.142.076.268 0 .196-.083.53-.183.674-.275-.301-.724-.436-1.442-.436-.216 0-.469.063-.609.1l-.057.013-.063.015.415.415c.639.637 1.191 1.187 1.191 1.553 0 .22-.216.508-.415.635-.041-.67-.72-1.569-1.383-2.071l-.057-.041-.009.236c-.011.159-.024.399-.024.657 0 1.279-.131 1.473-.574 1.473-.068 0-.172-.02-.236-.044.249-.31.347-.716.347-1.429l-.004-.329-.002-.266c0-.292.031-.508.052-.683l.013-.098-.07-.009c-.207-.031-.591-.083-.886-.083-.633 0-1.063.059-1.372.349-.205-.166-.415-.449-.415-.628 0-.268.166-.288.384-.288.109 0 .212.015.353.033.273.039.681.1 1.525.1h.052l-.017-.05c-.214-.611-.799-1.499-1.739-2.638.086-.308.169-.506.466-.506m-3.484-17.455c-.094-.388-.295-.788-.548-1.089-.231-.273-.613-.596-1.13-.596-.236 0-.628.109-.879.216-.094-.17-.277-.583-.277-.766 0-.192.323-.384.938-.384 1.357 0 2.169.611 2.169 1.639-.001.36-.145.688-.273.98m.608-1.335c-.048-.29-.159-.552-.327-.779.009-.264.118-.517.545-.31-.231.238-.052.657-.052.657s.473-.22.375-.532c.701.167.197 1.108-.541.964m2.64 9.05c.035-.295.057-.598.057-.908 0-.168.002-.364-.02-.589 2.62-.037 4.918-1.92 4.918-4.087 0-1.104-.72-1.935-1.126-2.433.092-.02.183-.041.277-.063.384.334 1.473 1.516 1.473 3.01 0 2.6-2.605 5.01-5.579 5.067"/><path d="m38.697 17.757h4.602v26.25h-4.602z"/></g><path fill="#e30613" d="m38.697 44.01h4.602v26.25h-4.602z"/><path fill="#ffd600" d="m38.697 70.25h4.602v26.25h-4.602z"/></svg>