<svg xmlns="http://www.w3.org/2000/svg" viewBox="0 0 16 16" enable-background="new 0 0 16 16"><path d="m4.691 6.442l2.663 1.103-1.798 1.038-.865-2.141m-4.691 6.43v.351h6.421l-1.329-3.29-5.092 2.939m15.993-4.978l-4.798 5.328h4.798v-5.328m-2.371 1.235l2.371-2.633v-2.858l-6.528 3.769 4.157 1.722m-11.421-6.351h-2.201v.708l2.988 1.238-.787-1.946m6.175 4.178l7.236-4.178h-12.401l.989 2.448 4.176 1.73m.068 1.041l-2.534 1.462 1.52 3.763h2.506l3.02-3.356-4.513-1.869m-4.965-2.057l-3.479-1.442v7.293l4.738-2.735-1.259-3.116"/></svg>